<?xml version="1.0" encoding="UTF-8"?>
<svg xmlns="http://www.w3.org/2000/svg" xmlns:xlink="http://www.w3.org/1999/xlink" width="24px" height="24px" viewBox="0 0 24 24" version="1.1">
<g id="surface1">
<path style=" stroke:none;fill-rule:nonzero;fill:rgb(0%,0%,0%);fill-opacity:1;" d="M 16.285156 0.113281 C 16.5 0.261719 16.707031 0.417969 16.914062 0.574219 C 17.019531 0.65625 17.132812 0.734375 17.242188 0.816406 C 17.324219 0.878906 17.40625 0.9375 17.488281 1 C 17.585938 1.074219 17.683594 1.144531 17.777344 1.214844 C 17.800781 1.230469 17.800781 1.230469 17.820312 1.246094 C 17.886719 1.292969 17.953125 1.34375 18.019531 1.390625 C 18.160156 1.496094 18.300781 1.601562 18.441406 1.707031 C 18.542969 1.785156 18.648438 1.863281 18.757812 1.941406 C 18.855469 2.007812 18.953125 2.082031 19.050781 2.15625 C 19.148438 2.230469 19.246094 2.300781 19.34375 2.375 C 19.441406 2.445312 19.535156 2.515625 19.632812 2.585938 C 19.726562 2.660156 19.824219 2.730469 19.921875 2.800781 C 19.933594 2.8125 19.949219 2.820312 19.960938 2.832031 C 20.027344 2.878906 20.09375 2.929688 20.164062 2.976562 C 20.304688 3.082031 20.445312 3.1875 20.582031 3.292969 C 20.6875 3.371094 20.792969 3.449219 20.898438 3.523438 C 20.984375 3.585938 21.066406 3.648438 21.148438 3.710938 C 21.261719 3.792969 21.371094 3.875 21.480469 3.957031 C 21.5 3.972656 21.5 3.972656 21.523438 3.984375 C 21.585938 4.035156 21.652344 4.082031 21.71875 4.128906 C 21.875 4.242188 22.03125 4.359375 22.183594 4.476562 C 22.273438 4.546875 22.363281 4.613281 22.453125 4.675781 C 22.542969 4.738281 22.632812 4.804688 22.71875 4.875 C 22.824219 4.953125 22.933594 5.035156 23.039062 5.109375 C 23.171875 5.203125 23.296875 5.300781 23.425781 5.394531 C 23.460938 5.421875 23.492188 5.445312 23.523438 5.46875 C 23.765625 5.644531 23.933594 5.808594 24 6.109375 C 24.023438 6.40625 23.976562 6.644531 23.785156 6.878906 C 23.5625 7.125 23.164062 7.253906 22.867188 7.394531 C 22.675781 7.488281 22.480469 7.582031 22.289062 7.675781 C 22.191406 7.722656 22.097656 7.769531 22 7.816406 C 21.96875 7.832031 21.96875 7.832031 21.941406 7.847656 C 21.773438 7.929688 21.605469 8.007812 21.4375 8.089844 C 21.386719 8.117188 21.335938 8.140625 21.28125 8.167969 C 21.269531 8.171875 21.257812 8.179688 21.242188 8.183594 C 21.078125 8.265625 20.914062 8.347656 20.746094 8.425781 C 20.492188 8.550781 20.238281 8.675781 19.984375 8.800781 C 19.757812 8.910156 19.53125 9.019531 19.304688 9.128906 C 19.054688 9.25 18.808594 9.371094 18.5625 9.492188 C 18.328125 9.605469 18.089844 9.722656 17.855469 9.835938 C 17.628906 9.945312 17.40625 10.054688 17.179688 10.164062 C 16.941406 10.28125 16.699219 10.398438 16.460938 10.515625 C 16.277344 10.605469 16.09375 10.695312 15.910156 10.78125 C 15.894531 10.789062 15.882812 10.796875 15.867188 10.804688 C 15.796875 10.835938 15.726562 10.871094 15.65625 10.90625 C 15.519531 10.972656 15.382812 11.039062 15.246094 11.105469 C 15.175781 11.140625 15.109375 11.175781 15.039062 11.207031 C 15.007812 11.222656 14.976562 11.238281 14.941406 11.257812 C 14.617188 11.417969 14.320312 11.550781 13.957031 11.433594 C 13.839844 11.386719 13.75 11.332031 13.65625 11.25 C 13.648438 11.242188 13.636719 11.234375 13.625 11.226562 C 13.484375 11.101562 13.386719 10.882812 13.371094 10.699219 C 13.367188 10.550781 13.382812 10.410156 13.40625 10.261719 C 13.410156 10.238281 13.414062 10.214844 13.417969 10.191406 C 13.429688 10.128906 13.4375 10.0625 13.449219 10 C 13.460938 9.929688 13.472656 9.863281 13.480469 9.792969 C 13.5 9.671875 13.519531 9.550781 13.542969 9.429688 C 13.570312 9.253906 13.597656 9.074219 13.628906 8.898438 C 13.640625 8.8125 13.65625 8.730469 13.667969 8.644531 C 13.671875 8.617188 13.671875 8.617188 13.675781 8.59375 C 13.695312 8.46875 13.714844 8.347656 13.734375 8.226562 C 13.816406 7.726562 13.898438 7.226562 13.976562 6.726562 C 13.980469 6.707031 13.984375 6.6875 13.988281 6.671875 C 14.011719 6.511719 14.039062 6.347656 14.0625 6.1875 C 14.105469 5.9375 14.144531 5.683594 14.183594 5.433594 C 14.1875 5.414062 14.191406 5.398438 14.195312 5.378906 C 14.207031 5.304688 14.21875 5.234375 14.230469 5.164062 C 14.320312 4.585938 14.414062 4.007812 14.507812 3.429688 C 14.527344 3.304688 14.546875 3.179688 14.566406 3.054688 C 14.570312 3.039062 14.574219 3.019531 14.574219 3.003906 C 14.589844 2.917969 14.601562 2.832031 14.617188 2.746094 C 14.644531 2.5625 14.675781 2.382812 14.703125 2.199219 C 14.722656 2.078125 14.742188 1.957031 14.761719 1.832031 C 14.773438 1.765625 14.785156 1.695312 14.796875 1.625 C 14.816406 1.488281 14.839844 1.355469 14.863281 1.21875 C 14.875 1.152344 14.882812 1.082031 14.894531 1.015625 C 14.898438 0.980469 14.90625 0.949219 14.910156 0.914062 C 14.917969 0.875 14.925781 0.835938 14.929688 0.792969 C 14.972656 0.53125 15.085938 0.308594 15.304688 0.144531 C 15.597656 -0.0429688 15.984375 -0.0664062 16.285156 0.113281 Z M 16.285156 0.113281 "/>
<path style=" stroke:none;fill-rule:nonzero;fill:rgb(0%,0%,0%);fill-opacity:1;" d="M 23.078125 13.984375 C 23.09375 13.984375 23.109375 13.984375 23.125 13.984375 C 23.25 13.984375 23.351562 14.003906 23.464844 14.054688 C 23.480469 14.058594 23.496094 14.066406 23.511719 14.074219 C 23.734375 14.183594 23.875 14.367188 23.953125 14.59375 C 23.980469 14.679688 23.988281 14.761719 23.988281 14.851562 C 23.988281 14.863281 23.988281 14.875 23.988281 14.886719 C 23.992188 15.109375 23.886719 15.316406 23.789062 15.511719 C 23.753906 15.589844 23.71875 15.664062 23.683594 15.742188 C 23.675781 15.757812 23.667969 15.769531 23.660156 15.785156 C 23.59375 15.933594 23.527344 16.078125 23.464844 16.226562 C 23.363281 16.449219 23.261719 16.667969 23.160156 16.890625 C 23.0625 17.101562 22.96875 17.3125 22.875 17.523438 C 22.792969 17.703125 22.710938 17.886719 22.625 18.066406 C 22.554688 18.21875 22.484375 18.375 22.417969 18.527344 C 22.320312 18.75 22.21875 18.96875 22.117188 19.183594 C 22.011719 19.410156 21.90625 19.636719 21.808594 19.867188 C 21.714844 20.078125 21.617188 20.285156 21.519531 20.496094 C 21.421875 20.703125 21.328125 20.917969 21.234375 21.128906 C 21.152344 21.308594 21.070312 21.488281 20.984375 21.667969 C 20.914062 21.824219 20.84375 21.980469 20.777344 22.132812 C 20.664062 22.386719 20.546875 22.640625 20.429688 22.890625 C 20.417969 22.917969 20.40625 22.945312 20.394531 22.972656 C 20.386719 22.984375 20.378906 22.996094 20.375 23.011719 C 20.320312 23.125 20.269531 23.238281 20.21875 23.355469 C 20.085938 23.652344 19.933594 23.851562 19.621094 23.972656 C 19.390625 24.042969 19.136719 24.011719 18.925781 23.90625 C 18.769531 23.820312 18.664062 23.710938 18.558594 23.566406 C 18.484375 23.46875 18.410156 23.375 18.335938 23.28125 C 18.261719 23.191406 18.1875 23.101562 18.117188 23.007812 C 18.035156 22.902344 17.953125 22.796875 17.867188 22.695312 C 17.8125 22.625 17.757812 22.558594 17.707031 22.488281 C 17.648438 22.410156 17.585938 22.335938 17.527344 22.261719 C 17.453125 22.171875 17.382812 22.082031 17.316406 21.988281 C 17.234375 21.886719 17.152344 21.78125 17.070312 21.679688 C 17.003906 21.601562 16.941406 21.519531 16.878906 21.4375 C 16.796875 21.332031 16.714844 21.226562 16.628906 21.125 C 16.574219 21.058594 16.519531 20.988281 16.46875 20.917969 C 16.410156 20.84375 16.347656 20.765625 16.289062 20.691406 C 16.214844 20.601562 16.144531 20.511719 16.078125 20.421875 C 15.996094 20.316406 15.914062 20.214844 15.832031 20.113281 C 15.765625 20.03125 15.703125 19.949219 15.640625 19.871094 C 15.558594 19.761719 15.476562 19.660156 15.390625 19.554688 C 15.335938 19.488281 15.28125 19.421875 15.230469 19.351562 C 15.171875 19.273438 15.109375 19.199219 15.050781 19.121094 C 14.976562 19.035156 14.90625 18.941406 14.835938 18.851562 C 14.757812 18.746094 14.675781 18.644531 14.59375 18.542969 C 14.527344 18.464844 14.464844 18.382812 14.402344 18.300781 C 14.320312 18.195312 14.238281 18.089844 14.152344 17.988281 C 14.097656 17.917969 14.042969 17.851562 13.992188 17.78125 C 13.933594 17.703125 13.871094 17.628906 13.8125 17.554688 C 13.738281 17.464844 13.667969 17.375 13.597656 17.285156 C 13.519531 17.179688 13.4375 17.074219 13.355469 16.972656 C 13.289062 16.894531 13.226562 16.8125 13.164062 16.730469 C 13.082031 16.625 13 16.523438 12.914062 16.417969 C 12.84375 16.332031 12.777344 16.246094 12.710938 16.160156 C 12.683594 16.121094 12.652344 16.085938 12.625 16.050781 C 12.4375 15.816406 12.328125 15.574219 12.359375 15.265625 C 12.398438 15.015625 12.527344 14.804688 12.738281 14.652344 C 12.90625 14.554688 13.0625 14.515625 13.257812 14.503906 C 13.277344 14.503906 13.296875 14.5 13.316406 14.5 C 13.671875 14.476562 14.023438 14.460938 14.378906 14.441406 C 14.480469 14.433594 14.582031 14.429688 14.683594 14.425781 C 14.917969 14.410156 15.152344 14.398438 15.382812 14.386719 C 15.410156 14.386719 15.433594 14.382812 15.460938 14.382812 C 15.472656 14.382812 15.488281 14.382812 15.5 14.378906 C 15.640625 14.371094 15.78125 14.363281 15.925781 14.355469 C 16.355469 14.335938 16.78125 14.3125 17.210938 14.289062 C 17.234375 14.285156 17.234375 14.285156 17.253906 14.285156 C 17.324219 14.28125 17.390625 14.277344 17.460938 14.273438 C 17.488281 14.273438 17.515625 14.273438 17.542969 14.269531 C 17.558594 14.269531 17.574219 14.269531 17.585938 14.269531 C 18.019531 14.246094 18.453125 14.222656 18.886719 14.199219 C 19.375 14.171875 19.863281 14.144531 20.351562 14.121094 C 20.402344 14.117188 20.453125 14.113281 20.507812 14.109375 C 20.519531 14.109375 20.53125 14.109375 20.546875 14.109375 C 20.75 14.097656 20.957031 14.085938 21.164062 14.074219 C 21.371094 14.066406 21.578125 14.054688 21.78125 14.042969 C 21.894531 14.035156 22.007812 14.03125 22.117188 14.023438 C 22.222656 14.019531 22.324219 14.011719 22.425781 14.007812 C 22.464844 14.007812 22.5 14.003906 22.535156 14 C 22.71875 13.992188 22.898438 13.984375 23.078125 13.984375 Z M 23.078125 13.984375 "/>
<path style=" stroke:none;fill-rule:nonzero;fill:rgb(0%,0%,0%);fill-opacity:1;" d="M 9.117188 10.433594 C 9.363281 10.648438 9.445312 10.898438 9.472656 11.21875 C 9.472656 11.234375 9.476562 11.25 9.476562 11.269531 C 9.480469 11.324219 9.488281 11.378906 9.492188 11.433594 C 9.496094 11.472656 9.496094 11.511719 9.5 11.550781 C 9.507812 11.636719 9.515625 11.726562 9.523438 11.8125 C 9.535156 11.9375 9.546875 12.066406 9.554688 12.195312 C 9.578125 12.4375 9.597656 12.679688 9.617188 12.921875 C 9.632812 13.109375 9.648438 13.296875 9.667969 13.484375 C 9.667969 13.511719 9.671875 13.539062 9.671875 13.566406 C 9.675781 13.582031 9.675781 13.59375 9.675781 13.605469 C 9.675781 13.621094 9.679688 13.632812 9.679688 13.648438 C 9.679688 13.667969 9.679688 13.667969 9.683594 13.6875 C 9.714844 14.066406 9.746094 14.445312 9.78125 14.820312 C 9.78125 14.84375 9.78125 14.84375 9.785156 14.863281 C 9.789062 14.9375 9.796875 15.007812 9.800781 15.082031 C 9.804688 15.09375 9.804688 15.109375 9.804688 15.125 C 9.808594 15.152344 9.808594 15.183594 9.8125 15.210938 C 9.851562 15.660156 9.890625 16.113281 9.925781 16.5625 C 9.972656 17.070312 10.015625 17.574219 10.058594 18.082031 C 10.0625 18.136719 10.066406 18.191406 10.070312 18.242188 C 10.070312 18.257812 10.074219 18.269531 10.074219 18.285156 C 10.089844 18.484375 10.109375 18.683594 10.125 18.886719 C 10.144531 19.113281 10.164062 19.339844 10.183594 19.570312 C 10.195312 19.699219 10.203125 19.824219 10.214844 19.953125 C 10.222656 20.046875 10.230469 20.144531 10.242188 20.238281 C 10.242188 20.277344 10.246094 20.316406 10.25 20.355469 C 10.265625 20.546875 10.277344 20.738281 10.28125 20.929688 C 10.28125 20.949219 10.28125 20.964844 10.28125 20.980469 C 10.277344 21.199219 10.199219 21.390625 10.050781 21.554688 C 9.847656 21.75 9.609375 21.824219 9.332031 21.816406 C 9.003906 21.804688 8.699219 21.5625 8.425781 21.398438 C 8.296875 21.320312 8.164062 21.246094 8.035156 21.171875 C 7.886719 21.085938 7.738281 21 7.589844 20.914062 C 7.425781 20.816406 7.261719 20.71875 7.09375 20.625 C 6.957031 20.546875 6.820312 20.464844 6.683594 20.386719 C 6.675781 20.378906 6.664062 20.375 6.652344 20.367188 C 6.613281 20.34375 6.570312 20.320312 6.53125 20.296875 C 6.382812 20.210938 6.238281 20.125 6.089844 20.039062 C 5.992188 19.980469 5.890625 19.921875 5.789062 19.863281 C 5.707031 19.816406 5.625 19.769531 5.542969 19.722656 C 5.351562 19.609375 5.15625 19.496094 4.964844 19.382812 C 4.777344 19.273438 4.589844 19.164062 4.398438 19.054688 C 4.300781 18.996094 4.199219 18.9375 4.101562 18.878906 C 4.019531 18.832031 3.933594 18.785156 3.851562 18.734375 C 3.660156 18.625 3.46875 18.511719 3.273438 18.398438 C 3.085938 18.289062 2.898438 18.179688 2.710938 18.070312 C 2.625 18.023438 2.542969 17.972656 2.460938 17.925781 C 2.425781 17.90625 2.394531 17.886719 2.359375 17.867188 C 2.292969 17.828125 2.226562 17.789062 2.160156 17.75 C 2.140625 17.738281 2.125 17.730469 2.109375 17.71875 C 2.074219 17.699219 2.042969 17.679688 2.007812 17.660156 C 1.925781 17.613281 1.84375 17.566406 1.761719 17.519531 C 1.558594 17.398438 1.355469 17.28125 1.152344 17.164062 C 1.035156 17.09375 0.921875 17.027344 0.804688 16.960938 C 0.738281 16.921875 0.675781 16.886719 0.609375 16.847656 C 0.585938 16.832031 0.558594 16.816406 0.535156 16.804688 C 0.285156 16.660156 0.0898438 16.488281 0.0117188 16.203125 C -0.0351562 15.925781 -0.00390625 15.6875 0.148438 15.449219 C 0.246094 15.328125 0.355469 15.242188 0.492188 15.160156 C 0.507812 15.148438 0.523438 15.136719 0.539062 15.128906 C 0.574219 15.109375 0.605469 15.085938 0.640625 15.066406 C 0.695312 15.03125 0.75 14.996094 0.804688 14.960938 C 0.9375 14.878906 1.070312 14.796875 1.203125 14.714844 C 1.363281 14.613281 1.527344 14.511719 1.6875 14.410156 C 1.886719 14.28125 2.089844 14.15625 2.289062 14.03125 C 2.453125 13.929688 2.613281 13.828125 2.773438 13.722656 C 2.976562 13.597656 3.175781 13.472656 3.378906 13.34375 C 3.539062 13.246094 3.703125 13.144531 3.863281 13.039062 C 4.0625 12.914062 4.265625 12.785156 4.464844 12.660156 C 4.609375 12.570312 4.753906 12.480469 4.898438 12.386719 C 5.011719 12.316406 5.125 12.246094 5.238281 12.175781 C 5.398438 12.074219 5.558594 11.972656 5.71875 11.871094 C 5.921875 11.746094 6.121094 11.617188 6.324219 11.492188 C 6.484375 11.390625 6.648438 11.289062 6.808594 11.1875 C 7.023438 11.050781 7.242188 10.914062 7.460938 10.777344 C 7.5625 10.714844 7.664062 10.652344 7.761719 10.585938 C 8.191406 10.3125 8.648438 10.066406 9.117188 10.433594 Z M 9.117188 10.433594 "/>
<path style=" stroke:none;fill-rule:nonzero;fill:rgb(0%,0%,0%);fill-opacity:1;" d="M 7.839844 2.285156 C 7.945312 2.371094 8.027344 2.457031 8.097656 2.570312 C 8.105469 2.582031 8.105469 2.582031 8.113281 2.597656 C 8.175781 2.699219 8.234375 2.804688 8.296875 2.910156 C 8.320312 2.949219 8.34375 2.992188 8.367188 3.03125 C 8.371094 3.042969 8.378906 3.054688 8.382812 3.0625 C 8.4375 3.160156 8.496094 3.257812 8.550781 3.355469 C 8.636719 3.5 8.71875 3.640625 8.800781 3.785156 C 8.921875 3.992188 9.039062 4.199219 9.15625 4.402344 C 9.210938 4.492188 9.261719 4.582031 9.3125 4.671875 C 9.335938 4.710938 9.355469 4.746094 9.375 4.78125 C 10.171875 6.15625 10.964844 7.53125 11.761719 8.902344 C 11.773438 8.921875 11.78125 8.941406 11.792969 8.957031 C 11.8125 8.996094 11.835938 9.03125 11.855469 9.066406 C 11.902344 9.148438 11.953125 9.234375 12 9.316406 C 12.019531 9.347656 12.035156 9.378906 12.050781 9.40625 C 12.074219 9.445312 12.09375 9.480469 12.117188 9.519531 C 12.136719 9.550781 12.15625 9.585938 12.175781 9.617188 C 12.191406 9.648438 12.207031 9.675781 12.226562 9.707031 C 12.234375 9.71875 12.242188 9.734375 12.25 9.746094 C 12.257812 9.757812 12.261719 9.769531 12.269531 9.78125 C 12.300781 9.851562 12.28125 9.921875 12.269531 9.996094 C 12.265625 10.023438 12.257812 10.046875 12.253906 10.074219 C 12.25 10.113281 12.242188 10.15625 12.234375 10.199219 C 12.21875 10.296875 12.207031 10.398438 12.199219 10.496094 C 12.199219 10.511719 12.199219 10.527344 12.199219 10.542969 C 12.179688 11.109375 12.410156 11.621094 12.785156 12.03125 C 12.820312 12.066406 12.851562 12.101562 12.886719 12.132812 C 12.832031 12.257812 12.703125 12.3125 12.585938 12.367188 C 12.476562 12.40625 12.378906 12.421875 12.261719 12.421875 C 12.25 12.421875 12.234375 12.421875 12.222656 12.421875 C 12.078125 12.417969 11.933594 12.40625 11.789062 12.390625 C 11.757812 12.390625 11.730469 12.386719 11.699219 12.382812 C 11.640625 12.378906 11.582031 12.375 11.523438 12.367188 C 11.445312 12.359375 11.371094 12.355469 11.292969 12.347656 C 11.234375 12.34375 11.175781 12.335938 11.117188 12.332031 C 11.089844 12.328125 11.0625 12.328125 11.03125 12.324219 C 10.992188 12.320312 10.953125 12.316406 10.914062 12.3125 C 10.902344 12.3125 10.894531 12.3125 10.878906 12.308594 C 10.832031 12.304688 10.792969 12.300781 10.746094 12.285156 C 10.722656 12.117188 10.703125 11.953125 10.691406 11.785156 C 10.6875 11.75 10.683594 11.710938 10.683594 11.675781 C 10.671875 11.574219 10.664062 11.46875 10.65625 11.367188 C 10.621094 10.859375 10.621094 10.859375 10.480469 10.375 C 10.476562 10.363281 10.472656 10.347656 10.464844 10.335938 C 10.382812 10.144531 10.277344 9.96875 10.140625 9.8125 C 10.128906 9.800781 10.117188 9.785156 10.105469 9.773438 C 9.753906 9.371094 9.265625 9.128906 8.734375 9.082031 C 8.210938 9.050781 7.738281 9.207031 7.308594 9.496094 C 7.21875 9.554688 7.125 9.613281 7.035156 9.667969 C 6.902344 9.75 6.769531 9.832031 6.640625 9.917969 C 6.625 9.925781 6.609375 9.9375 6.59375 9.945312 C 6.5625 9.964844 6.53125 9.984375 6.503906 10.003906 C 6.316406 10.121094 6.132812 10.238281 5.945312 10.355469 C 5.800781 10.445312 5.65625 10.535156 5.511719 10.625 C 5.382812 10.710938 5.25 10.789062 5.121094 10.871094 C 4.992188 10.949219 4.867188 11.03125 4.742188 11.109375 C 4.660156 11.160156 4.582031 11.210938 4.503906 11.261719 C 4.484375 11.273438 4.46875 11.28125 4.449219 11.292969 C 4.417969 11.3125 4.382812 11.335938 4.347656 11.355469 C 4.265625 11.40625 4.1875 11.457031 4.113281 11.515625 C 4.097656 11.523438 4.082031 11.535156 4.070312 11.542969 C 4.042969 11.5625 4.015625 11.582031 3.992188 11.601562 C 3.90625 11.664062 3.832031 11.671875 3.730469 11.660156 C 3.710938 11.660156 3.710938 11.660156 3.6875 11.660156 C 3.648438 11.65625 3.605469 11.652344 3.566406 11.648438 C 3.539062 11.648438 3.515625 11.644531 3.488281 11.644531 C 3.414062 11.636719 3.335938 11.632812 3.261719 11.625 C 3.242188 11.621094 3.242188 11.621094 3.21875 11.621094 C 3.148438 11.613281 3.074219 11.609375 3.003906 11.601562 C 2.945312 11.597656 2.886719 11.589844 2.828125 11.585938 C 2.753906 11.582031 2.683594 11.574219 2.609375 11.566406 C 2.582031 11.566406 2.554688 11.5625 2.527344 11.5625 C 2.25 11.539062 1.964844 11.480469 1.765625 11.265625 C 1.578125 11.027344 1.511719 10.777344 1.546875 10.480469 C 1.59375 10.238281 1.765625 10.023438 1.898438 9.820312 C 1.960938 9.722656 2.027344 9.625 2.089844 9.527344 C 2.105469 9.5 2.105469 9.5 2.121094 9.472656 C 2.144531 9.4375 2.167969 9.402344 2.191406 9.367188 C 2.246094 9.277344 2.304688 9.191406 2.359375 9.105469 C 2.382812 9.070312 2.40625 9.035156 2.425781 9 C 3.183594 7.816406 3.945312 6.636719 4.703125 5.453125 C 4.714844 5.4375 4.726562 5.417969 4.738281 5.402344 C 4.757812 5.367188 4.78125 5.332031 4.804688 5.296875 C 4.859375 5.207031 4.917969 5.121094 4.972656 5.03125 C 5.167969 4.726562 5.167969 4.726562 5.265625 4.578125 C 5.34375 4.457031 5.421875 4.339844 5.496094 4.21875 C 5.605469 4.046875 5.714844 3.878906 5.824219 3.707031 C 5.867188 3.636719 5.914062 3.566406 5.957031 3.5 C 5.980469 3.464844 6.003906 3.429688 6.023438 3.394531 C 6.082031 3.304688 6.136719 3.21875 6.195312 3.128906 C 6.25 3.042969 6.304688 2.957031 6.363281 2.871094 C 6.390625 2.820312 6.421875 2.773438 6.453125 2.726562 C 6.636719 2.4375 6.804688 2.230469 7.152344 2.144531 C 7.398438 2.105469 7.636719 2.144531 7.839844 2.285156 Z M 7.839844 2.285156 "/>
</g>
</svg>
