<svg version="1.2" xmlns="http://www.w3.org/2000/svg" viewBox="0 0 177 24" width="177" height="24">
	<style>
		.s0 { fill: #e2dddd } 
		.s1 { fill: #ffffff } 
	</style>
	<g id="Layer 1">
		<path id="Path 0" fill-rule="evenodd" class="s0" d="m17.5 0.04c-0.05 0.03-0.14 0.06-0.18 0.09-0.04 0.02-0.12 0.09-0.17 0.14q-0.1 0.1-0.15 0.22-0.05 0.11-0.07 0.16c0 0.02-0.36 2.25-0.79 4.95-0.47 2.94-0.79 4.94-0.79 5.01 0 0.06 0.01 0.16 0.03 0.21 0.01 0.06 0.04 0.14 0.07 0.19 0.02 0.04 0.1 0.13 0.16 0.2 0.07 0.07 0.16 0.13 0.21 0.16 0.05 0.02 0.14 0.06 0.19 0.07 0.06 0.01 0.15 0.03 0.21 0.03 0.06 0 0.15-0.01 0.2-0.03 0.05-0.01 0.16-0.05 0.25-0.1 0.09-0.04 0.37-0.17 0.63-0.3 0.25-0.13 0.61-0.3 0.78-0.38 0.18-0.09 1.91-0.94 3.86-1.89 1.95-0.95 3.58-1.75 3.62-1.78 0.03-0.02 0.1-0.08 0.15-0.13 0.04-0.05 0.1-0.14 0.13-0.19 0.02-0.05 0.05-0.14 0.07-0.2 0.01-0.06 0.02-0.14 0.02-0.19 0-0.06-0.01-0.15-0.02-0.2-0.02-0.06-0.05-0.16-0.08-0.21-0.03-0.06-0.1-0.15-0.16-0.21-0.06-0.06-1.75-1.32-3.75-2.8-2-1.49-3.68-2.72-3.72-2.75-0.05-0.02-0.13-0.06-0.19-0.08q-0.09-0.03-0.25-0.03c-0.11 0-0.17 0.01-0.26 0.04zm-7.17 10.25q-0.08 0.02-0.14 0.04c-0.03 0.02-1.45 0.91-3.16 1.99-1.71 1.07-3.46 2.18-3.9 2.46-0.66 0.42-0.82 0.52-0.89 0.6-0.05 0.06-0.12 0.15-0.15 0.22-0.03 0.06-0.06 0.15-0.07 0.21q-0.02 0.09-0.02 0.17c0 0.05 0.01 0.13 0.03 0.19 0.01 0.06 0.05 0.16 0.08 0.21 0.02 0.05 0.08 0.13 0.12 0.18 0.03 0.04 0.11 0.1 0.17 0.14 0.06 0.04 2.02 1.18 4.35 2.54 2.86 1.68 4.28 2.49 4.35 2.52 0.1 0.03 0.15 0.04 0.28 0.04 0.13 0 0.18-0.01 0.28-0.04 0.06-0.02 0.16-0.07 0.22-0.12q0.12-0.08 0.2-0.19c0.04-0.06 0.09-0.16 0.11-0.22 0.02-0.05 0.05-0.15 0.05-0.2q0.01-0.11-0.41-5.05c-0.23-2.72-0.43-4.98-0.44-5.03-0.01-0.05-0.04-0.14-0.06-0.2q-0.05-0.11-0.17-0.23c-0.07-0.07-0.16-0.14-0.21-0.16-0.05-0.03-0.14-0.06-0.19-0.07-0.05-0.01-0.15-0.02-0.22-0.02-0.08 0-0.17 0.01-0.21 0.02zm9.75 3.96c-2.7 0.15-4.96 0.28-5.02 0.29q-0.12 0.02-0.24 0.07-0.13 0.07-0.23 0.17-0.1 0.1-0.16 0.22c-0.03 0.06-0.07 0.16-0.08 0.21q-0.02 0.1-0.01 0.24c0 0.07 0.02 0.18 0.04 0.23 0.02 0.06 0.06 0.13 0.08 0.17 0.03 0.03 1.42 1.81 3.1 3.94 1.68 2.14 3.08 3.91 3.11 3.94 0.02 0.03 0.09 0.08 0.14 0.12 0.05 0.03 0.15 0.08 0.22 0.1q0.14 0.05 0.26 0.05 0.13 0 0.26-0.05c0.08-0.02 0.18-0.07 0.23-0.11 0.06-0.04 0.13-0.1 0.16-0.13q0.06-0.07 0.1-0.14c0.02-0.03 0.88-1.93 1.92-4.22 1.04-2.28 1.9-4.2 1.91-4.25 0.02-0.05 0.03-0.13 0.04-0.18q0.01-0.09-0.02-0.22c-0.01-0.07-0.05-0.17-0.08-0.23q-0.05-0.11-0.16-0.22-0.11-0.11-0.22-0.16c-0.06-0.03-0.16-0.06-0.22-0.08q-0.11-0.02-0.18-0.02c-0.03 0-2.26 0.12-4.95 0.26zm-10.9-12.1c-0.05 0.01-0.14 0.03-0.19 0.05-0.05 0.02-0.13 0.07-0.18 0.1-0.05 0.03-0.12 0.1-0.15 0.14-0.04 0.04-1.18 1.81-2.54 3.94-1.36 2.12-2.49 3.9-2.51 3.96-0.04 0.07-0.05 0.14-0.05 0.26-0.01 0.09 0 0.2 0.01 0.25 0.01 0.05 0.04 0.14 0.07 0.19 0.02 0.06 0.08 0.14 0.12 0.18 0.04 0.05 0.12 0.12 0.18 0.16 0.06 0.04 0.15 0.09 0.21 0.1 0.08 0.03 0.32 0.06 0.85 0.1 0.41 0.04 0.76 0.07 0.79 0.07 0.04 0 0.21-0.1 0.64-0.37 0.32-0.2 0.69-0.44 0.83-0.52 0.13-0.09 0.52-0.33 0.86-0.55 0.34-0.21 0.79-0.49 1-0.63 0.21-0.13 0.44-0.27 0.51-0.3 0.07-0.04 0.19-0.09 0.27-0.12 0.09-0.02 0.23-0.06 0.32-0.07 0.13-0.02 0.22-0.03 0.4-0.02q0.23 0.01 0.38 0.04c0.09 0.02 0.22 0.06 0.3 0.1 0.09 0.03 0.2 0.09 0.26 0.12 0.06 0.03 0.17 0.11 0.25 0.16 0.07 0.06 0.18 0.15 0.24 0.22 0.05 0.06 0.13 0.16 0.17 0.21 0.04 0.06 0.11 0.17 0.15 0.24 0.04 0.08 0.1 0.2 0.12 0.27 0.02 0.07 0.06 0.19 0.08 0.26 0.02 0.08 0.05 0.41 0.09 0.86 0.03 0.4 0.06 0.73 0.06 0.73 0 0 0.35 0.03 0.77 0.07 0.6 0.05 0.79 0.06 0.86 0.05q0.09-0.02 0.17-0.04c0.04-0.01 0.12-0.05 0.17-0.09q0.1-0.06 0.12-0.09c0.02-0.03 0.01-0.05-0.08-0.14-0.06-0.06-0.14-0.16-0.17-0.21-0.04-0.05-0.1-0.14-0.14-0.21-0.04-0.06-0.09-0.17-0.12-0.25-0.03-0.07-0.07-0.2-0.1-0.29-0.03-0.14-0.04-0.19-0.04-0.45 0-0.24 0.01-0.33 0.04-0.54q0.05-0.25 0.03-0.28c-0.01-0.03-0.96-1.67-2.11-3.66-1.8-3.12-2.1-3.63-2.19-3.73q-0.1-0.11-0.2-0.16c-0.05-0.03-0.14-0.07-0.19-0.08-0.05-0.01-0.13-0.03-0.18-0.03-0.05-0.01-0.13 0-0.18 0z"/>
		<path id="Salsa as Service" class="s1" aria-label="Salsa as Service"  d="m38.6 6.3v1.7q-1-0.4-1.9-0.7-0.9-0.2-1.7-0.2-1.5 0-2.2 0.5-0.8 0.6-0.8 1.6 0 0.9 0.5 1.4 0.5 0.4 2 0.7l1 0.2q2 0.4 3 1.3 0.9 1 0.9 2.6 0 1.9-1.3 2.9-1.2 1-3.7 1-0.9 0-2-0.3-1-0.2-2.2-0.6v-1.8q1.1 0.6 2.2 0.9 1 0.3 2 0.3 1.5 0 2.3-0.6 0.9-0.6 0.9-1.7 0-1-0.6-1.5-0.6-0.5-2-0.8l-1.1-0.2q-1.9-0.4-2.8-1.3-0.9-0.8-0.9-2.3 0-1.8 1.2-2.8 1.2-1 3.4-1 0.9 0 1.9 0.2 0.9 0.2 1.9 0.5zm9.2 7.8h-1.6q-2 0-2.7 0.4-0.8 0.4-0.8 1.5 0 0.9 0.6 1.4 0.5 0.5 1.5 0.5 1.4 0 2.2-0.9 0.8-1 0.8-2.6zm1.6-0.7v5.7h-1.6v-1.5q-0.6 0.9-1.4 1.3-0.8 0.4-2 0.4-1.5 0-2.4-0.8-0.9-0.9-0.9-2.3 0-1.7 1.1-2.5 1.1-0.9 3.3-0.9h2.3v-0.1q0-1.1-0.8-1.7-0.7-0.6-2-0.6-0.9 0-1.7 0.2-0.8 0.2-1.5 0.6v-1.5q0.9-0.4 1.7-0.5 0.9-0.2 1.7-0.2 2.1 0 3.1 1.1 1.1 1.1 1.1 3.3zm3.3 5.7v-13.7h1.6v13.7zm11.3-9.6v1.5q-0.7-0.3-1.4-0.5-0.8-0.2-1.6-0.2-1.2 0-1.8 0.4-0.6 0.4-0.6 1.1 0 0.6 0.5 0.9 0.4 0.3 1.7 0.6l0.5 0.1q1.8 0.4 2.5 1.1 0.7 0.6 0.7 1.8 0 1.4-1.1 2.2-1.1 0.8-3 0.8-0.7 0-1.6-0.1-0.9-0.2-1.8-0.5v-1.7q0.9 0.5 1.8 0.7 0.8 0.3 1.7 0.3 1.1 0 1.7-0.4 0.7-0.4 0.7-1.1 0-0.7-0.5-1-0.4-0.4-1.9-0.7l-0.6-0.2q-1.5-0.3-2.2-0.9-0.6-0.7-0.6-1.8 0-1.4 0.9-2.2 1-0.7 2.8-0.7 0.9 0 1.7 0.1 0.8 0.1 1.5 0.4zm8.8 4.6h-1.6q-2 0-2.7 0.5-0.8 0.4-0.8 1.5 0 0.9 0.6 1.4 0.5 0.5 1.5 0.5 1.4 0 2.2-1 0.8-0.9 0.8-2.5zm1.6-0.7v5.6h-1.6v-1.5q-0.6 0.9-1.4 1.4-0.8 0.4-2 0.4-1.5 0-2.4-0.9-0.9-0.8-0.9-2.2 0-1.7 1.1-2.5 1.1-0.9 3.3-0.9h2.3v-0.2q0-1.1-0.7-1.7-0.8-0.6-2.1-0.6-0.8 0-1.6 0.2-0.8 0.2-1.6 0.6v-1.5q0.9-0.3 1.7-0.5 0.9-0.2 1.7-0.2 2.1 0 3.2 1.1 1 1.2 1 3.4zm15.4 0.7h-1.6q-2 0-2.7 0.4-0.8 0.5-0.8 1.6 0 0.8 0.6 1.3 0.5 0.5 1.5 0.5 1.4 0 2.2-0.9 0.8-1 0.8-2.6zm1.6-0.6v5.6h-1.6v-1.5q-0.6 0.9-1.4 1.3-0.8 0.4-2 0.4-1.5 0-2.4-0.8-0.9-0.9-0.9-2.3 0-1.6 1.1-2.5 1.1-0.8 3.3-0.8h2.3v-0.2q0-1.1-0.7-1.7-0.8-0.6-2.1-0.6-0.8 0-1.6 0.2-0.8 0.2-1.6 0.6v-1.5q0.9-0.4 1.7-0.5 0.9-0.2 1.7-0.2 2.1 0 3.2 1.1 1 1.1 1 3.4zm9.6-4v1.6q-0.7-0.4-1.4-0.6-0.8-0.1-1.6-0.1-1.2 0-1.8 0.3-0.6 0.4-0.6 1.1 0 0.6 0.5 0.9 0.4 0.3 1.7 0.6l0.5 0.1q1.8 0.4 2.5 1.1 0.7 0.7 0.7 1.9 0 1.3-1.1 2.1-1.1 0.8-3 0.8-0.7 0-1.6-0.1-0.9-0.2-1.8-0.5v-1.6q0.9 0.4 1.8 0.7 0.8 0.2 1.7 0.2 1.1 0 1.7-0.4 0.7-0.4 0.7-1.1 0-0.7-0.5-1-0.4-0.4-1.9-0.7l-0.6-0.1q-1.5-0.3-2.2-1-0.6-0.7-0.6-1.8 0-1.4 0.9-2.1 1-0.8 2.8-0.8 0.9 0 1.7 0.1 0.8 0.2 1.5 0.4zm16.7-3.1v1.7q-1.1-0.5-2-0.7-0.9-0.2-1.7-0.2-1.4 0-2.2 0.5-0.8 0.6-0.8 1.6 0 0.9 0.5 1.3 0.5 0.5 2 0.8l1.1 0.2q2 0.4 2.9 1.3 0.9 1 0.9 2.6 0 1.9-1.2 2.9-1.3 0.9-3.8 0.9-0.9 0-2-0.2-1-0.2-2.1-0.6v-1.8q1 0.6 2.1 0.9 1 0.3 2 0.3 1.5 0 2.4-0.6 0.8-0.6 0.8-1.7 0-1-0.6-1.5-0.6-0.6-2-0.8l-1-0.2q-2-0.4-2.9-1.3-0.9-0.8-0.9-2.3 0-1.8 1.2-2.8 1.3-1 3.4-1 0.9 0 1.9 0.2 0.9 0.2 2 0.5zm12.4 7.4v0.7h-7.4q0.1 1.7 1 2.6 0.9 0.9 2.5 0.9 0.9 0 1.8-0.3 0.9-0.2 1.8-0.6v1.5q-0.9 0.3-1.8 0.5-0.9 0.2-1.9 0.2-2.3 0-3.7-1.3-1.4-1.4-1.4-3.7 0-2.5 1.3-3.9 1.3-1.4 3.5-1.4 2 0 3.2 1.3 1.1 1.3 1.1 3.5zm-7.3-0.5h5.7q0-1.3-0.7-2.1-0.8-0.8-1.9-0.8-1.4 0-2.2 0.7-0.8 0.8-0.9 2.2zm15.6-4.2v1.6q-0.3-0.1-0.6-0.2-0.3-0.1-0.7-0.1-1.4 0-2.1 0.9-0.7 0.9-0.7 2.6v5.2h-1.6v-9.9h1.6v1.6q0.5-0.9 1.3-1.4 0.8-0.4 2-0.4 0.2 0 0.4 0 0.2 0 0.4 0.1zm3.8 10l-3.6-9.9h1.7l3 8.3 3.1-8.3h1.7l-3.7 9.9zm8.5 0v-9.9h1.6v9.9zm0-11.6v-2.1h1.6v2.1zm12.1 2.1v1.5q-0.7-0.4-1.4-0.5-0.6-0.2-1.3-0.2-1.6 0-2.5 1-0.9 1-0.9 2.8 0 1.8 0.9 2.8 0.9 1 2.5 1 0.7 0 1.3-0.2 0.7-0.2 1.4-0.6v1.5q-0.6 0.3-1.4 0.5-0.7 0.1-1.5 0.1-2.2 0-3.5-1.4-1.4-1.4-1.4-3.7 0-2.4 1.4-3.8 1.3-1.4 3.6-1.4 0.7 0 1.4 0.2 0.8 0.1 1.4 0.4zm11.4 4.2v0.7h-7.5q0.1 1.7 1 2.6 0.9 0.9 2.5 0.9 1 0 1.8-0.3 0.9-0.2 1.8-0.6v1.5q-0.9 0.3-1.8 0.5-0.9 0.2-1.9 0.2-2.3 0-3.7-1.3-1.4-1.4-1.4-3.7 0-2.5 1.3-3.9 1.4-1.4 3.6-1.4 2 0 3.1 1.3 1.2 1.3 1.2 3.5zm-7.4-0.5h5.7q0-1.3-0.7-2.1-0.7-0.8-1.9-0.8-1.4 0-2.2 0.7-0.8 0.8-0.9 2.2z"/>
	</g>
</svg>